<?xml version="1.0" standalone="no"?>
<!DOCTYPE svg PUBLIC "-//W3C//DTD SVG 20010904//EN"
 "http://www.w3.org/TR/2001/REC-SVG-20010904/DTD/svg10.dtd">
<svg version="1.0" xmlns="http://www.w3.org/2000/svg"
 width="100.000000pt" height="100.000000pt" viewBox="0 0 100.000000 100.000000"
 preserveAspectRatio="xMidYMid meet">

<g transform="translate(0.000000,100.000000) scale(0.100000,-0.100000)"
fill="#000000" stroke="none">
<path d="M480 960 c-18 -18 -20 -33 -20 -150 0 -117 2 -132 20 -150 13 -13 33
-20 56 -20 l36 0 -4 -47 c-2 -39 0 -48 15 -51 25 -5 65 23 89 64 l20 34 94 0
c133 0 134 1 134 170 0 180 13 170 -230 170 -177 0 -191 -1 -210 -20z m395
-150 l0 -125 -101 -3 -102 -3 -28 -42 -27 -42 -11 40 c-11 38 -14 40 -56 45
l-45 5 -3 114 c-1 63 0 121 2 128 4 11 43 13 188 11 l183 -3 0 -125z"/>
<path d="M580 860 c0 -18 7 -20 70 -20 63 0 70 2 70 20 0 18 -7 20 -70 20 -63
0 -70 -2 -70 -20z"/>
<path d="M760 860 c0 -16 7 -20 30 -20 23 0 30 4 30 20 0 16 -7 20 -30 20 -23
0 -30 -4 -30 -20z"/>
<path d="M580 760 c0 -16 7 -20 30 -20 23 0 30 4 30 20 0 16 -7 20 -30 20 -23
0 -30 -4 -30 -20z"/>
<path d="M680 760 c0 -18 7 -20 70 -20 63 0 70 2 70 20 0 18 -7 20 -70 20 -63
0 -70 -2 -70 -20z"/>
<path d="M333 881 c-73 -34 -103 -111 -84 -221 5 -33 6 -59 0 -65 -17 -17 -9
-61 16 -95 14 -19 25 -41 25 -50 0 -9 7 -25 15 -36 18 -24 19 -84 3 -107 -7
-9 -51 -34 -98 -55 -115 -53 -170 -114 -170 -188 l0 -24 400 0 400 0 0 24 c0
73 -55 135 -165 186 -45 20 -88 45 -98 54 -23 23 -22 78 3 118 27 45 25 64 -7
80 -23 11 -29 21 -31 53 -4 49 -17 65 -51 65 -58 0 -66 17 -71 152 -6 140 -9
144 -87 109z"/>
</g>
</svg>
