<?xml version="1.0" standalone="no"?>
<!DOCTYPE svg PUBLIC "-//W3C//DTD SVG 20010904//EN"
 "http://www.w3.org/TR/2001/REC-SVG-20010904/DTD/svg10.dtd">
<svg version="1.0" xmlns="http://www.w3.org/2000/svg"
 width="100.000000pt" height="100.000000pt" viewBox="0 0 100.000000 100.000000"
 preserveAspectRatio="xMidYMid meet">

<g transform="translate(0.000000,100.000000) scale(0.100000,-0.100000)"
fill="#000000" stroke="none">
<path d="M735 971 c-9 -41 -19 -46 -55 -24 -30 17 -30 17 -57 -10 -27 -27 -27
-27 -9 -58 20 -34 14 -46 -24 -51 -22 -3 -25 -9 -28 -45 -3 -39 -1 -42 27 -48
40 -9 45 -19 26 -48 -18 -29 -12 -50 21 -72 22 -14 27 -14 46 0 34 23 45 18
52 -20 7 -33 9 -35 47 -35 36 0 40 3 46 30 8 40 17 45 53 24 29 -18 30 -18 59
10 l30 29 -20 28 c-24 34 -19 45 22 54 28 6 30 9 27 48 -3 36 -6 42 -28 45
-38 5 -44 17 -24 51 18 31 18 31 -9 58 -27 27 -27 27 -58 9 -34 -20 -46 -14
-51 24 -3 22 -9 25 -45 28 -39 3 -42 1 -48 -27z m85 -151 c11 -11 20 -29 20
-40 0 -11 -9 -29 -20 -40 -11 -11 -29 -20 -40 -20 -11 0 -29 9 -40 20 -11 11
-20 29 -20 40 0 11 9 29 20 40 11 11 29 20 40 20 11 0 29 -9 40 -20z"/>
<path d="M104 815 l-25 -25 3 -255 3 -255 -28 0 c-34 0 -43 -21 -27 -61 25
-58 30 -59 470 -59 440 0 445 1 470 59 16 40 7 61 -27 61 l-28 0 3 141 c3 139
3 140 -17 129 -19 -10 -21 -20 -21 -128 0 -79 -4 -122 -12 -130 -17 -17 -719
-17 -736 0 -17 17 -17 479 0 496 8 8 67 12 199 12 178 0 187 1 192 20 5 20 0
20 -194 20 -200 0 -200 0 -225 -25z"/>
</g>
</svg>
