<?xml version="1.0" standalone="no"?>
<!DOCTYPE svg PUBLIC "-//W3C//DTD SVG 20010904//EN"
 "http://www.w3.org/TR/2001/REC-SVG-20010904/DTD/svg10.dtd">
<svg version="1.0" xmlns="http://www.w3.org/2000/svg"
 width="90.000000pt" height="90.000000pt" viewBox="0 0 90.000000 90.000000"
 preserveAspectRatio="xMidYMid meet">

<g transform="translate(0.000000,90.000000) scale(0.100000,-0.100000)"
fill="#000000" stroke="none">
<path d="M110 760 c-19 -19 -20 -33 -20 -250 0 -217 1 -231 20 -250 19 -19 33
-20 340 -20 307 0 321 1 340 20 19 19 20 33 20 250 0 217 -1 231 -20 250 -19
19 -33 20 -340 20 -307 0 -321 -1 -340 -20z m640 -220 l0 -180 -300 0 -300 0
0 180 0 180 300 0 300 0 0 -180z m-275 -240 c0 -18 -6 -26 -23 -28 -24 -4 -38
18 -28 44 3 9 15 14 28 12 17 -2 23 -10 23 -28z"/>
<path d="M274 165 c-4 -8 -4 -22 0 -30 5 -13 31 -15 178 -13 l173 3 0 25 0 25
-173 3 c-147 2 -173 0 -178 -13z"/>
</g>
</svg>
