<?xml version="1.0" standalone="no"?>
<!DOCTYPE svg PUBLIC "-//W3C//DTD SVG 20010904//EN"
 "http://www.w3.org/TR/2001/REC-SVG-20010904/DTD/svg10.dtd">
<svg version="1.0" xmlns="http://www.w3.org/2000/svg"
 width="100.000000pt" height="100.000000pt" viewBox="0 0 100.000000 100.000000"
 preserveAspectRatio="xMidYMid meet">

<g transform="translate(0.000000,100.000000) scale(0.100000,-0.100000)"
fill="#000000" stroke="none">
<path d="M400 949 c-122 -24 -259 -130 -314 -244 -35 -71 -56 -179 -38 -197 6
-6 73 -50 149 -98 l138 -86 3 -142 3 -142 159 0 159 0 3 142 3 142 138 86 c76
48 143 92 149 98 18 18 -3 126 -38 197 -57 116 -194 221 -319 244 -27 5 -51 8
-52 7 -2 -1 9 -18 23 -37 41 -54 75 -137 95 -234 25 -120 25 -165 0 -165 -16
0 -19 11 -25 70 -13 131 -66 280 -116 325 -19 18 -21 18 -40 0 -50 -45 -105
-199 -117 -327 -5 -57 -9 -68 -24 -68 -24 0 -25 37 -3 151 18 94 52 187 87
233 32 43 40 56 30 55 -4 -1 -28 -5 -53 -10z m-134 -385 c26 -12 49 -41 94
-116 33 -54 60 -101 60 -103 0 -3 -8 -5 -17 -5 -22 0 -314 182 -310 194 6 17
72 46 105 46 19 0 49 -7 68 -16z m313 -2 c60 -30 60 -40 2 -136 -46 -76 -56
-86 -81 -86 -25 0 -35 10 -81 86 -40 66 -50 91 -42 103 16 26 75 51 123 51 25
0 60 -8 79 -18z m291 0 c18 -11 35 -23 37 -28 4 -12 -288 -194 -310 -194 -9 0
-17 2 -17 5 0 2 27 49 60 103 64 107 94 131 160 132 19 0 51 -8 70 -18z m-315
-322 c0 -11 -13 -16 -49 -18 -50 -3 -74 7 -61 28 11 17 110 9 110 -10z"/>
</g>
</svg>
